<svg xmlns="http://www.w3.org/2000/svg" viewBox="0 0 600 237" fill="none" aria-label="Atom">
  <path d="M 150.772 19.250 L 150.500 38.500 142.750 38.792 L 135 39.084 135 48.500 L 135 57.916 142.750 58.208 L 150.500 58.500 151.062 104 C 151.726 157.823, 152.156 160.525, 161.743 171.137 C 168.245 178.334, 173.664 180.366, 187.500 180.795 C 205.113 181.342, 205 181.419, 205 168.918 C 205 159.653, 204.850 158.849, 203.250 159.526 C 199.968 160.913, 185.359 161.274, 181.675 160.058 C 176.851 158.466, 172.380 153.114, 170.515 146.701 C 169.221 142.247, 169.019 134.854, 169.239 99.955 L 169.500 58.500 184.250 58.223 L 199 57.947 199 48.500 L 199 39.053 184.250 38.777 L 169.500 38.500 169.228 19.250 L 168.957 0 160 0 L 151.043 0 150.772 19.250 M 25.317 35.441 C 21.917 36.214, 17.079 37.756, 14.567 38.867 L 10 40.888 10 51.944 C 10 58.025, 10.168 63, 10.373 63 C 10.578 63, 12.766 62.106, 15.236 61.014 C 32.851 53.222, 53.661 53.513, 62.177 61.671 C 67.292 66.569, 70.869 79.171, 70.969 92.645 L 71 96.790 64.750 94.805 C 45.677 88.748, 21.063 93.440, 10.483 105.150 C -3.617 120.758, -3.275 152.857, 11.160 168.576 C 24.447 183.044, 53.158 184.777, 84.347 172.993 L 90.194 170.784 89.622 167.142 C 89.308 165.139, 88.783 144.150, 88.456 120.500 C 87.786 72.035, 87.124 65.741, 81.495 54.315 C 77.266 45.731, 71.229 40.001, 63.147 36.900 C 55.845 34.098, 34.793 33.286, 25.317 35.441 M 295 36.312 C 232.902 55.467, 225.462 140.955, 283.350 170.177 C 289.345 173.203, 302.376 177, 306.766 177 C 308.184 177, 310.039 178.051, 311.179 179.500 C 315.065 184.440, 323 181.755, 323 175.500 C 323 170.432, 314.806 166.269, 312.422 170.126 C 311.482 171.648, 303.221 170.687, 295 168.099 C 276.404 162.246, 261.181 147.332, 253.668 127.608 C 249.445 116.520, 249.064 96.766, 252.856 85.500 C 266.614 44.623, 313.241 27.270, 348.894 49.758 C 361.515 57.718, 371.091 69.856, 376.099 84.242 C 379.378 93.662, 379.676 97.639, 377.404 101.669 C 374.305 107.169, 379.541 113.265, 385.439 111.023 C 390.253 109.193, 391.203 104.602, 387.652 100.327 C 386.294 98.692, 385.040 95.515, 384.677 92.793 C 381.539 69.236, 362.819 46.797, 338.773 37.772 C 327.134 33.403, 306.646 32.719, 295 36.312 M 455.500 38.717 C 449.981 39.485, 436.577 43.019, 429.116 45.673 L 421.732 48.301 422.366 55.801 C 422.715 59.927, 423 90.009, 423 122.651 L 423 182 432.023 182 L 441.046 182 440.773 122.953 L 440.500 63.905 447.313 61.836 C 462.390 57.257, 478.035 60.583, 484.239 69.687 C 490.243 78.496, 490.394 79.967, 490.765 133.250 L 491.105 182 500.133 182 L 509.160 182 508.761 131.750 C 508.416 88.267, 508.123 80.446, 506.592 73.673 C 505.618 69.367, 505.057 65.610, 505.344 65.323 C 507.531 63.136, 519.915 60, 526.364 60 C 537.045 60, 543.034 62.095, 547.787 67.495 C 555.790 76.587, 556.935 85.847, 556.973 141.750 L 557 182 565.500 182 L 574 182 574 134.131 C 574 75.182, 572.897 66.647, 563.590 53.556 C 551.633 36.738, 523.112 33.281, 498.638 45.684 C 493.725 48.173, 493.725 48.173, 491.082 46.219 C 482.345 39.759, 468.695 36.881, 455.500 38.717 M 300 62.992 C 274.671 72.333, 263.207 101.394, 275.224 125.802 C 280.890 137.313, 294.303 147.746, 305.798 149.584 C 308.134 149.957, 310.286 150.654, 310.581 151.131 C 310.876 151.609, 312.866 152, 315.002 152 C 321.330 152, 324.351 145.351, 320 141 C 317.880 138.880, 313.076 138.324, 311.396 140.004 C 309.911 141.489, 301.118 138.600, 295.376 134.741 C 270.919 118.303, 276.828 80.030, 305.147 71.456 C 325.716 65.228, 348.420 80.880, 348.480 101.330 C 348.501 108.654, 349.954 111, 354.469 111 C 360.177 111, 362.740 105.063, 359.581 99.154 C 358.800 97.694, 357.607 94.326, 356.928 91.669 C 354.200 80.983, 344.553 70.038, 333.123 64.660 C 324.303 60.509, 308.844 59.731, 300 62.992 M 307.415 90.421 C 298.616 94.253, 295.530 106.622, 301.274 115.037 C 310.171 128.068, 331 121.552, 331 105.738 C 331 93.296, 318.885 85.428, 307.415 90.421 M 43 111.582 C 24.153 114.753, 17.668 121.018, 17.767 135.956 C 17.884 153.533, 29.343 162.020, 51.212 160.727 C 56.321 160.425, 62.862 159.446, 65.750 158.550 L 71 156.923 71 136.083 L 71 115.243 64.750 113.674 C 57.952 111.968, 46.980 110.912, 43 111.582" fill="#ffffff" fill-rule="evenodd"/>
</svg>
